<svg width="89" height="126" viewBox="0 0 89 126" fill="none" xmlns="http://www.w3.org/2000/svg">
<g clip-path="url(#clip0)">
<path d="M44.1618 125.673L8.29016 115.597L0.296143 24.8765H88.1349L80.1326 115.583L44.1618 125.673Z" fill="#264DE4"/>
<path d="M73.2818 109.807L80.1199 32.2944H44.2156V117.961L73.2818 109.807Z" fill="#2965F1"/>
<path d="M18.6221 65.9412L19.6075 77.0676H44.2155V65.9412H18.6221Z" fill="#EBEBEB"/>
<path d="M16.6416 43.4209L17.6412 54.5474H44.2156V43.4209H16.6416Z" fill="#EBEBEB"/>
<path d="M44.2155 94.8379L44.1673 94.8508L31.9207 91.5049L31.1377 82.6311H20.0989L21.6394 100.101L44.1649 106.428L44.2155 106.414V94.8379Z" fill="#EBEBEB"/>
<path d="M20.9686 0.222656H34.2868V5.85818H26.5383V11.4937H34.2875V17.1289H20.9686V0.222656Z" fill="black"/>
<path d="M36.9508 0.222656H50.2693V5.12309H42.5205V6.1031H50.2693V17.3742H36.9511V12.2281H44.7V11.2481H36.9504V0.222656H36.9508Z" fill="black"/>
<path d="M52.9333 0.222656H66.2519V5.12309H58.503V6.1031H66.2519V17.3742H52.9333V12.2281H60.6822V11.2481H52.9337V0.222656H52.9333Z" fill="black"/>
<path d="M69.7388 65.9411L71.7238 43.4209H44.1777V54.5474H59.6727L58.6721 65.9411H44.1777V77.0675H57.7187L56.442 91.4978L44.1774 94.8472V106.423L66.7209 100.101L66.8861 98.2213L69.4706 68.9288L69.7388 65.9411Z" fill="white"/>
</g>
<defs>
<clipPath id="clip0">
<rect width="88.1452" height="125.768" fill="white" transform="translate(0.142944 0.222656)"/>
</clipPath>
</defs>
</svg>
