<svg width="89" height="126" viewBox="0 0 89 126" fill="none" xmlns="http://www.w3.org/2000/svg">
<g clip-path="url(#clip0)">
<path d="M88.7977 24.8765L80.7955 115.583L44.8247 125.673L8.953 115.597L0.958984 24.8765H88.7977Z" fill="#E44D26"/>
<path d="M44.8783 117.961L73.9445 109.807L80.7827 32.2944H44.8783V117.961Z" fill="#F16529"/>
<path d="M29.322 54.5474H44.8783V43.4209H17.3043L17.5674 46.4059L20.2703 77.0676H44.8783V65.9411H30.3271L29.322 54.5474Z" fill="#EBEBEB"/>
<path d="M31.8004 82.6311H20.7616L22.3021 100.101L44.8277 106.428L44.8783 106.414V94.8379L44.8301 94.8508L32.5834 91.5049L31.8004 82.6311Z" fill="#EBEBEB"/>
<path d="M9.13123 0.222656H14.7195V5.80906H19.8316V0.222656H25.4202V17.1397H19.8319V11.4749H14.7198V17.1397H9.13157V0.222656H9.13123Z" fill="black"/>
<path d="M32.7686 5.83275H27.8497V0.222656H43.28V5.83275H38.3579V17.1397H32.7697V5.83275H32.7693H32.7686Z" fill="black"/>
<path d="M45.7288 0.222656H51.5556L55.14 6.16685L58.7209 0.222656H64.5502V17.1397H58.9846V8.75468L55.14 14.7696H55.0436L51.1965 8.75468V17.1397H45.7288V0.222656Z" fill="black"/>
<path d="M67.3312 0.222656H72.9211V11.5481H80.7798V17.1397H67.3308V0.222656H67.3312Z" fill="black"/>
<path d="M44.8404 77.0676H58.3814L57.1047 91.4979L44.8401 94.8473V106.423L67.3836 100.101L67.5488 98.2214L70.1333 68.9289L70.4015 65.9412H44.8404V77.0676Z" fill="white"/>
<path d="M44.8403 54.5202V54.5474H71.402L71.6224 52.0466L72.1237 46.4059L72.3864 43.4209H44.8403V54.5205V54.5202Z" fill="white"/>
</g>
<defs>
<clipPath id="clip0">
<rect width="88.1452" height="125.768" fill="white" transform="translate(0.805664 0.222656)"/>
</clipPath>
</defs>
</svg>
