<svg
							width="127"
							height="126"
							viewBox="0 0 127 126"
							fill="none"
							xmlns="http://www.w3.org/2000/svg"
						>
							<g clip-path="url(#clip0)">
								<path d="M0.845398 0.222656H126.614V125.991H0.845398V0.222656Z" fill="#F7DF1E" />
								<path
									d="M33.9146 105.323L43.5388 99.4983C45.3958 102.79 47.0848 105.576 51.1364 105.576C55.02 105.576 57.4691 104.057 57.4691 98.1478V57.9619H69.2878V98.3148C69.2878 110.556 62.1122 116.128 51.643 116.128C42.1882 116.128 36.7001 111.232 33.9141 105.322"
									fill="black"
								/>
								<path
									d="M75.7075 104.057L85.3307 98.485C87.8642 102.622 91.1568 105.661 96.9814 105.661C101.879 105.661 105.002 103.213 105.002 99.8356C105.002 95.7835 101.794 94.3479 96.3904 91.9849L93.4363 90.7174C84.9092 87.0883 79.253 82.5292 79.253 72.905C79.253 64.0403 86.0067 57.2861 96.5599 57.2861C104.074 57.2861 109.477 59.9037 113.36 66.7418L104.157 72.652C102.131 69.0219 99.9365 67.5868 96.5594 67.5868C93.0979 67.5868 90.9028 69.7819 90.9028 72.652C90.9028 76.1975 93.0979 77.6336 98.163 79.8286L101.118 81.0946C111.164 85.4007 116.82 89.7903 116.82 99.6671C116.82 110.305 108.463 116.13 97.2344 116.13C86.2597 116.13 79.1681 110.896 75.707 104.057"
									fill="black"
								/>
							</g>
							<defs>
								<clipPath id="clip0">
									<rect
										width="125.768"
										height="125.768"
										fill="white"
										transform="translate(0.845398 0.222656)"
									/>
								</clipPath>
							</defs>
						</svg>