<svg width="256" height="73" viewBox="0 0 256 73" fill="none" xmlns="http://www.w3.org/2000/svg">
<path fill-rule="evenodd" clip-rule="evenodd" d="M238.357 30.2315C238.127 30.2775 237.895 30.785 237.895 31.0615C237.849 32.9075 237.803 37.7985 237.803 41.1205C237.803 41.213 237.941 41.3975 238.08 41.3975C238.772 41.4435 240.433 41.4895 241.863 41.4895C243.847 41.4895 245.001 41.213 245.648 40.9365C247.308 40.1055 248.092 38.306 248.092 36.3215C248.092 31.8465 244.955 30.139 240.294 30.139C239.971 30.093 239.05 30.093 238.357 30.2315V30.2315ZM250.262 50.8565C250.262 46.2885 246.893 43.7505 240.803 43.7505C240.526 43.7505 238.588 43.7045 238.126 43.7965C237.988 43.843 237.803 43.9355 237.803 44.074C237.803 47.3495 237.757 52.564 237.895 54.594C237.987 55.4705 238.634 56.7165 239.418 57.0855C240.248 57.547 242.14 57.639 243.432 57.639C247.077 57.639 250.262 55.609 250.262 50.8565V50.8565ZM228.944 27.694C229.405 27.694 230.789 27.832 234.342 27.832C237.711 27.832 240.387 27.74 243.663 27.74C247.677 27.74 253.214 29.17 253.214 35.1685C253.214 38.1215 251.137 40.475 248.415 41.6285C248.277 41.6745 248.277 41.7665 248.415 41.8125C252.291 42.782 255.706 45.181 255.706 49.7025C255.706 54.1325 252.938 56.947 248.923 58.7005C246.478 59.7615 243.432 60.1305 240.341 60.1305C237.987 60.1305 231.666 59.854 228.16 59.9465C227.791 59.8075 228.483 58.1465 228.805 57.87C229.636 57.8235 230.282 57.7775 231.159 57.5005C232.405 57.178 232.543 56.8085 232.727 54.917C232.82 53.302 232.82 47.58 232.82 43.52C232.82 37.937 232.867 34.1535 232.82 32.308C232.774 30.878 232.266 30.416 231.251 30.139C230.466 30.001 229.175 29.816 228.113 29.678C227.882 29.447 228.667 27.878 228.944 27.694ZM202.32 56.3935C203.428 57.2695 205.597 57.6385 207.535 57.6385C210.026 57.6385 212.518 57.178 214.917 55.0085C217.363 52.7945 219.07 49.38 219.07 43.9355C219.07 38.721 217.086 34.476 213.025 31.985C210.718 30.554 207.765 29.955 204.351 29.955C203.336 29.955 202.367 30.001 201.767 30.2775C201.628 30.37 201.306 30.785 201.306 31.0155C201.213 31.9385 201.213 39.044 201.213 43.197C201.213 47.488 201.213 53.4865 201.306 54.1785C201.306 54.871 201.628 55.932 202.321 56.3935H202.32ZM191.846 27.6935C192.723 27.6935 196.091 27.832 197.706 27.832C200.614 27.832 202.69 27.694 208.18 27.694C212.794 27.694 216.67 28.9395 219.439 31.2925C222.807 34.1995 224.561 38.214 224.561 43.1045C224.561 50.072 221.377 54.0865 218.193 56.3935C215.01 58.7465 210.857 60.1305 204.951 60.1305C201.814 60.1305 196.415 60.0385 191.939 59.992H191.893C191.663 59.577 192.262 57.962 192.631 57.916C193.831 57.7775 194.154 57.731 194.754 57.501C195.722 57.1315 195.908 56.624 196.046 54.917C196.184 51.733 196.138 47.9035 196.138 43.566C196.138 40.475 196.184 34.43 196.092 32.492C195.954 30.8775 195.261 30.462 193.877 30.185C193.185 30.047 192.262 29.862 190.971 29.724C190.786 29.4005 191.616 27.9705 191.846 27.694V27.6935Z" fill="#8E714E"/>
<path fill-rule="evenodd" clip-rule="evenodd" d="M136.017 58.1925C134.863 58.054 134.033 57.87 133.018 57.4085C132.879 57.316 132.648 56.855 132.648 56.67C132.556 55.055 132.556 50.441 132.556 47.35C132.556 44.858 132.141 42.6895 131.08 41.167C129.834 39.413 128.035 38.3985 125.727 38.3985C123.697 38.3985 120.975 39.7825 118.714 41.7205C118.668 41.7665 118.299 42.09 118.345 41.582C118.345 41.0745 118.437 40.0595 118.483 39.367C118.53 38.721 118.16 38.3985 118.16 38.3985C116.684 39.1365 112.531 40.1055 111.008 40.2435C109.901 40.475 109.624 41.536 110.778 41.905H110.824C112.069 42.274 112.9 42.6895 113.546 43.105C114.007 43.474 113.961 43.9815 113.961 44.397C114.007 47.857 114.007 53.1635 113.869 56.0705C113.823 57.224 113.5 57.639 112.669 57.8235L112.762 57.7775C112.116 57.916 111.608 58.054 110.824 58.1465C110.547 58.4235 110.547 59.9 110.824 60.223C111.331 60.223 114.007 60.0845 116.223 60.0845C119.268 60.0845 120.837 60.223 121.621 60.223C121.944 59.854 122.036 58.4695 121.852 58.1465C120.975 58.1005 120.329 58.0085 119.729 57.8235C118.899 57.6385 118.668 57.224 118.621 56.255C118.53 53.809 118.53 48.6415 118.53 45.135C118.53 44.166 118.806 43.7045 119.083 43.4275C120.144 42.505 121.852 41.859 123.374 41.859C124.851 41.859 125.819 42.3205 126.558 42.9205C127.573 43.7505 127.896 44.9505 128.034 45.827C128.265 47.811 128.173 51.733 128.173 55.1475C128.173 56.993 128.034 57.4545 127.343 57.685C127.019 57.8235 126.189 58.0085 125.22 58.1C124.897 58.4235 124.989 59.854 125.22 60.177C126.558 60.177 128.127 60.0385 130.434 60.0385C133.294 60.0385 135.14 60.177 135.879 60.177C136.109 59.9 136.201 58.562 136.017 58.1925V58.1925ZM148.798 40.5675C146.353 40.5675 144.83 42.459 144.83 45.4115C144.83 48.411 146.168 51.8715 149.951 51.8715C150.597 51.8715 151.797 51.5945 152.35 50.9485C153.227 50.1185 153.827 48.457 153.827 46.7035C153.827 42.874 151.935 40.567 148.798 40.567V40.5675ZM148.475 60.961C147.552 60.961 146.906 61.238 146.491 61.469C144.553 62.714 143.676 63.914 143.676 65.345C143.676 66.6825 144.184 67.7435 145.291 68.6665C146.629 69.82 148.475 70.374 150.828 70.374C155.534 70.374 157.611 67.836 157.611 65.345C157.611 63.591 156.734 62.4375 154.935 61.792C153.643 61.238 151.29 60.961 148.475 60.961V60.961ZM148.798 72.958C145.983 72.958 143.953 72.358 142.2 71.02C140.492 69.728 139.754 67.79 139.754 66.452C139.754 66.083 139.847 65.0675 140.677 64.145C141.184 63.591 142.292 62.53 144.922 60.7305C145.014 60.6845 145.06 60.6385 145.06 60.5455C145.06 60.4535 144.968 60.361 144.876 60.3155C142.707 59.485 142.061 58.1465 141.876 57.4085V57.316C141.831 57.039 141.738 56.7625 142.154 56.4855C142.477 56.255 142.938 55.978 143.445 55.6555C144.23 55.1935 145.06 54.686 145.568 54.2705C145.66 54.1785 145.66 54.0865 145.66 53.994C145.66 53.9015 145.568 53.809 145.475 53.7635C142.246 52.702 140.631 50.3025 140.631 46.7035C140.631 44.3505 141.692 42.228 143.584 40.89C144.876 39.875 148.106 38.629 150.228 38.629H150.367C152.535 38.675 153.735 39.1365 155.442 39.7365C156.365 40.0595 157.242 40.1975 158.442 40.1975C160.241 40.1975 161.025 39.644 161.671 38.9985C161.717 39.0905 161.81 39.3215 161.856 39.921C161.902 40.521 161.717 41.3975 161.256 42.0435C160.887 42.551 160.056 42.9205 159.226 42.9205H158.995C158.164 42.828 157.795 42.7355 157.795 42.7355L157.611 42.828C157.565 42.9205 157.611 43.0125 157.657 43.151L157.703 43.2435C157.795 43.6585 157.98 44.904 157.98 45.2275C157.98 49.011 156.457 50.6715 154.842 51.9175C153.273 53.071 151.474 53.809 149.444 53.994C149.398 53.994 149.214 53.994 148.798 54.04C148.567 54.04 148.244 54.0865 148.198 54.0865H148.152C147.783 54.1785 146.86 54.64 146.86 55.424C146.86 56.116 147.275 56.947 149.259 57.0855C149.674 57.1315 150.089 57.1315 150.551 57.178C153.181 57.362 156.457 57.593 157.98 58.1005C160.102 58.8845 161.44 60.7765 161.44 63.0375C161.44 66.4525 158.995 69.636 154.935 71.6195C152.951 72.4965 150.966 72.958 148.798 72.958V72.958ZM175.098 40.798C174.129 40.798 173.252 41.028 172.606 41.4895C170.807 42.597 169.884 44.812 169.884 48.0415C169.884 54.0865 172.929 58.3315 177.266 58.3315C178.558 58.3315 179.573 57.962 180.45 57.224C181.788 56.116 182.48 53.9015 182.48 50.81C182.48 44.812 179.481 40.7975 175.098 40.7975L175.098 40.798ZM175.928 60.546C168.084 60.546 165.27 54.7785 165.27 49.38C165.27 45.5965 166.792 42.6895 169.837 40.613C172.006 39.275 174.591 38.537 176.898 38.537C182.896 38.537 187.094 42.828 187.094 49.011C187.094 53.2095 185.433 56.5315 182.249 58.562C180.727 59.577 178.097 60.546 175.928 60.546H175.928V60.546ZM93.7055 40.7975C92.7365 40.7975 91.86 41.028 91.2135 41.4895C89.4145 42.597 88.4915 44.812 88.4915 48.0415C88.4915 54.0865 91.5365 58.3315 95.874 58.3315C97.166 58.3315 98.181 57.962 99.058 57.224C100.396 56.116 101.088 53.9015 101.088 50.81C101.088 44.812 98.135 40.7975 93.7055 40.7975ZM94.536 60.546C86.692 60.546 83.8775 54.7785 83.8775 49.38C83.8775 45.5965 85.4 42.6895 88.445 40.613C90.614 39.275 93.198 38.537 95.505 38.537C101.504 38.537 105.702 42.828 105.702 49.011C105.702 53.2095 104.041 56.5315 100.857 58.562C99.3805 59.577 96.7505 60.546 94.536 60.546ZM41.797 60.0845C41.7045 59.9465 41.612 59.531 41.6585 59.0235C41.6585 58.654 41.751 58.4235 41.797 58.3315C42.766 58.1925 43.2735 58.054 43.827 57.916C44.75 57.685 45.119 57.178 45.165 56.0245C45.304 53.256 45.304 47.9955 45.2575 44.3505V44.258C45.2575 43.843 45.2575 43.335 44.75 42.966C44.0115 42.505 43.135 42.09 41.9815 41.766C41.5665 41.6285 41.2895 41.3975 41.3355 41.121C41.3355 40.844 41.6125 40.521 42.2125 40.4285C43.735 40.29 47.7025 39.3215 49.2715 38.629C49.364 38.721 49.5025 38.9985 49.5025 39.3675L49.4565 39.8745C49.41 40.3825 49.364 40.9825 49.364 41.582C49.364 41.7665 49.549 41.905 49.733 41.905C49.8255 41.905 49.918 41.859 50.01 41.8125C52.963 39.5055 55.639 38.675 57.023 38.675C59.2845 38.675 61.038 39.7365 62.376 41.951C62.468 42.09 62.5605 42.136 62.699 42.136C62.791 42.136 62.929 42.09 62.9755 41.9975C65.698 39.921 68.4205 38.675 70.2195 38.675C74.5105 38.675 77.0485 41.859 77.0485 47.2575C77.0485 48.78 77.0485 50.764 77.0025 52.564C77.0025 54.1785 76.9565 55.655 76.9565 56.7165C76.9565 56.9465 77.279 57.685 77.7865 57.8235C78.4325 58.1465 79.3095 58.285 80.463 58.4695H80.509C80.6015 58.7925 80.417 59.992 80.2325 60.223C79.9555 60.223 79.54 60.223 79.079 60.177C77.911 60.1161 76.7416 60.0852 75.572 60.0845C72.7115 60.0845 71.235 60.1305 69.804 60.223C69.7125 59.854 69.666 58.7465 69.804 58.4695C70.635 58.3315 71.05 58.1925 71.558 58.0545C72.481 57.7775 72.7115 57.362 72.758 56.1625C72.758 55.286 72.942 47.811 72.665 46.0115C72.3885 44.166 71.004 41.9975 67.9585 41.9975C66.805 41.9975 65.006 42.459 63.2525 43.7965C63.1605 43.889 63.0675 44.1195 63.0675 44.258V44.3045C63.2525 45.273 63.2525 46.381 63.2525 48.088V51.087C63.2525 53.1635 63.206 55.1015 63.2525 56.5775C63.2525 57.593 63.8525 57.8235 64.36 58.0085C64.637 58.054 64.821 58.1005 65.052 58.1465C65.467 58.239 65.8825 58.3315 66.5285 58.4695C66.621 58.6545 66.621 59.254 66.4825 59.7615C66.436 60.0385 66.3435 60.1765 66.2975 60.223C64.729 60.177 63.114 60.1305 60.761 60.1305C60.069 60.1305 58.869 60.177 57.854 60.177C57.023 60.177 56.239 60.223 55.778 60.223C55.7315 60.1305 55.639 59.808 55.639 59.3C55.639 58.885 55.7315 58.562 55.824 58.4695C56.0545 58.4235 56.239 58.3775 56.47 58.3775C57.023 58.285 57.485 58.1925 57.946 58.1005C58.731 57.87 59.0075 57.4545 59.0535 56.4395C59.192 54.1325 59.3305 47.5345 59.0075 45.873C58.454 43.197 56.9315 41.859 54.4855 41.859C53.0555 41.859 51.2555 42.551 49.7795 43.659C49.5485 43.843 49.364 44.304 49.364 44.7195V47.442C49.364 50.764 49.364 54.917 49.41 56.7165C49.4565 57.2695 49.6405 57.916 50.702 58.1465C50.933 58.1925 51.302 58.285 51.7635 58.3315L52.5935 58.4695C52.6865 58.7465 52.64 59.854 52.4555 60.223C51.994 60.223 51.4405 60.177 50.794 60.177C49.8255 60.1305 48.5795 60.0845 47.1955 60.0845C45.5805 60.0845 44.427 60.1305 43.504 60.177C42.858 60.0845 42.3505 60.0845 41.797 60.0845V60.0845Z" fill="#442D22"/>
<path fill-rule="evenodd" clip-rule="evenodd" d="M17.5265 71.1585L15.635 70.512C15.635 70.512 15.866 60.869 12.405 60.177C10.0985 57.5005 12.775 -53.3295 21.08 59.8075C21.08 59.8075 18.219 61.2375 17.7115 63.6835C17.1575 66.083 17.5265 71.1585 17.5265 71.1585V71.1585Z" fill="white"/>
<path fill-rule="evenodd" clip-rule="evenodd" d="M17.5265 71.1585L15.635 70.512C15.635 70.512 15.866 60.869 12.405 60.177C10.0985 57.5005 12.775 -53.3295 21.08 59.8075C21.08 59.8075 18.219 61.2375 17.7115 63.6835C17.1575 66.083 17.5265 71.1585 17.5265 71.1585V71.1585Z" fill="#A6A385"/>
<path fill-rule="evenodd" clip-rule="evenodd" d="M18.542 61.838C18.542 61.838 35.107 50.9485 31.2305 28.293C27.4935 11.8215 18.6805 6.423 17.7115 4.3465C16.6505 2.87 15.635 0.286499 15.635 0.286499L16.3275 46.1035C16.3275 46.15 14.897 60.1305 18.5425 61.8385" fill="white"/>
<path fill-rule="evenodd" clip-rule="evenodd" d="M18.542 61.838C18.542 61.838 35.107 50.9485 31.2305 28.293C27.4935 11.8215 18.6805 6.423 17.7115 4.3465C16.6505 2.87 15.635 0.286499 15.635 0.286499L16.3275 46.1035C16.3275 46.15 14.897 60.1305 18.5425 61.8385" fill="#499D4A"/>
<path fill-rule="evenodd" clip-rule="evenodd" d="M14.6665 62.4375C14.6665 62.4375 -0.883501 51.825 0.0394992 33.1385C0.915999 14.4515 11.8975 5.2695 14.02 3.6085C15.4045 2.132 15.4505 1.578 15.543 0.101501C16.512 2.178 16.3275 31.1545 16.4655 34.5685C16.8805 47.7185 15.7275 59.9465 14.6665 62.4375Z" fill="white"/>
<path fill-rule="evenodd" clip-rule="evenodd" d="M14.6665 62.4375C14.6665 62.4375 -0.883501 51.825 0.0394992 33.1385C0.915999 14.4515 11.8975 5.2695 14.02 3.6085C15.4045 2.132 15.4505 1.578 15.543 0.101501C16.512 2.178 16.3275 31.1545 16.4655 34.5685C16.8805 47.7185 15.7275 59.9465 14.6665 62.4375Z" fill="#58AA50"/>
</svg>
