<svg width="125" height="125" viewBox="0 0 125 112" fill="none" xmlns="http://www.w3.org/2000/svg">
<g clip-path="url(#clip0)">
<path d="M102.775 36.047C101.445 35.5906 100.103 35.1678 98.7515 34.779C98.9785 33.8512 99.1875 32.9347 99.3731 32.0343C102.419 17.2487 100.428 5.33707 93.6265 1.4152C87.1055 -2.34457 76.4409 1.57584 65.6704 10.9494C64.6089 11.8748 63.571 12.827 62.5576 13.8048C61.8792 13.1546 61.1888 12.5169 60.4868 11.8922C49.1987 1.86979 37.8843 -2.35433 31.0903 1.57877C24.5752 5.35026 22.646 16.548 25.3882 30.5607C25.661 31.9485 25.969 33.3292 26.312 34.7013C24.7104 35.1564 23.165 35.6408 21.686 36.1564C8.45166 40.7707 0 48.0016 0 55.5021C0 63.2487 9.07324 71.0187 22.8574 75.7301C23.9749 76.1105 25.1017 76.463 26.2368 76.7873C25.8682 78.2651 25.5409 79.753 25.2554 81.2492C22.6411 95.0187 24.6826 105.952 31.1802 109.699C37.8911 113.569 49.1548 109.592 60.1221 100.005C61.0114 99.2251 61.8811 98.4236 62.7305 97.6007C63.8279 98.6596 64.9546 99.6877 66.1094 100.684C76.7334 109.825 87.2256 113.517 93.7168 109.759C100.421 105.878 102.601 94.1325 99.7715 79.8429C99.5486 78.7235 99.2987 77.6095 99.022 76.5021C99.813 76.2677 100.589 76.0265 101.346 75.7756C115.676 71.028 125 63.3522 125 55.5021C125 47.9743 116.275 40.6945 102.775 36.047V36.047ZM99.667 70.7072C98.9834 70.9333 98.2822 71.1515 97.5674 71.3639C95.9853 66.3556 93.8506 61.0304 91.2378 55.528C93.731 50.1569 95.7837 44.8996 97.3213 39.924C98.6001 40.2941 99.8408 40.6842 101.037 41.0959C112.604 45.0783 119.66 50.9655 119.66 55.5021C119.66 60.3341 112.04 66.6071 99.667 70.7072V70.7072ZM94.5332 80.88C95.7842 87.1984 95.9624 92.9113 95.1338 97.3776C94.3896 101.391 92.8926 104.066 91.041 105.138C87.102 107.418 78.6777 104.454 69.5923 96.6359C68.5182 95.7098 67.4701 94.754 66.4492 93.7697C69.9717 89.9176 73.4917 85.4396 76.9272 80.466C82.9702 79.9299 88.6792 79.0529 93.8564 77.8561C94.1113 78.8849 94.3379 79.8937 94.5332 80.88V80.88ZM42.6152 104.744C38.7666 106.103 35.7012 106.142 33.8481 105.073C29.9053 102.799 28.2661 94.0207 30.502 82.2453C30.7677 80.8538 31.072 79.47 31.4145 78.0954C36.5347 79.2282 42.2021 80.0426 48.2593 80.5339C51.7183 85.4006 55.3398 89.8737 58.9897 93.7907C58.2141 94.5412 57.4201 95.2726 56.6084 95.984C51.7583 100.223 46.8984 103.231 42.6152 104.744V104.744ZM24.585 70.6774C18.4897 68.5939 13.4561 65.8864 10.0059 62.9318C6.90527 60.277 5.34033 57.6408 5.34033 55.5021C5.34033 50.9504 12.126 45.1447 23.4438 41.1989C24.8174 40.7204 26.2549 40.2687 27.7466 39.8449C29.311 44.9328 31.3628 50.2526 33.8389 55.632C31.3306 61.091 29.2495 66.4958 27.6699 71.6437C26.6338 71.3469 25.6052 71.0247 24.585 70.6774V70.6774ZM30.6289 29.5348C28.2798 17.5295 29.8398 8.4733 33.7661 6.20035C37.9478 3.77946 47.1948 7.23112 56.9414 15.8854C57.577 16.451 58.2022 17.0281 58.8169 17.6164C55.1851 21.5163 51.5967 25.9562 48.1685 30.7941C42.2896 31.339 36.6621 32.214 31.4883 33.3864C31.1695 32.1101 30.883 30.826 30.6289 29.5353V29.5348ZM84.5483 42.8493C83.3263 40.7384 82.0589 38.6541 80.7471 36.5978C84.7353 37.1022 88.5566 37.7716 92.145 38.59C91.0679 42.0431 89.7251 45.653 88.1445 49.3542C86.9892 47.1621 85.7903 44.9934 84.5483 42.8493V42.8493ZM62.5601 21.4328C65.0229 24.1012 67.4897 27.0802 69.916 30.3127C64.9941 30.0802 60.0641 30.0792 55.1421 30.3097C57.5708 27.1071 60.0586 24.132 62.5601 21.4328ZM40.4307 42.8859C39.2043 45.0128 38.0277 47.168 36.9019 49.3498C35.3472 45.6618 34.0166 42.0353 32.9302 38.5334C36.4966 37.7355 40.2998 37.0832 44.2627 36.588C42.9362 38.6569 41.6585 40.7566 40.4307 42.8854V42.8859ZM44.3765 74.7961C40.2822 74.339 36.4219 73.7204 32.8564 72.944C33.96 69.3796 35.3198 65.6759 36.9082 61.9089C38.0385 64.0923 39.22 66.2488 40.4517 68.3766C41.7183 70.5641 43.0298 72.7067 44.3765 74.7961ZM62.7075 89.9474C60.1763 87.217 57.6519 84.196 55.1865 80.9469C57.5801 81.0407 60.02 81.0885 62.5 81.0885C65.0479 81.0885 67.5664 81.0314 70.0454 80.9211C67.6113 84.2287 65.1538 87.2541 62.7075 89.9474ZM88.1948 61.7165C89.8657 65.5251 91.2739 69.2091 92.3921 72.7126C88.7681 73.5397 84.855 74.2057 80.7319 74.7004C82.0531 72.6059 83.3325 70.4854 84.5693 68.34C85.8268 66.1593 87.0356 63.9509 88.1948 61.7165V61.7165ZM79.9439 65.672C78.0504 68.9613 76.0505 72.1881 73.9473 75.3473C70.1375 75.6172 66.3193 75.7512 62.5 75.7492C58.6099 75.7492 54.8262 75.6281 51.1826 75.3918C49.0245 72.2398 46.9864 69.0074 45.0728 65.7013H45.0732C43.1686 62.4128 41.3894 59.0531 39.7397 55.6296C41.3852 52.2052 43.159 48.8439 45.0571 45.5529L45.0566 45.5534C46.9541 42.2615 48.9759 39.0429 51.1177 35.9045C54.835 35.6232 58.647 35.4767 62.4995 35.4767H62.5C66.3701 35.4767 70.187 35.6247 73.9033 35.9079C76.0235 39.0416 78.0324 42.2492 79.9263 45.5246C81.8308 48.8084 83.6279 52.1532 85.3149 55.5539C83.6453 58.9893 81.8538 62.3641 79.9439 65.672V65.672ZM90.9595 6.04117C95.145 8.45524 96.7729 18.1901 94.1431 30.9562C93.9751 31.7707 93.7866 32.6003 93.5815 33.4416C88.395 32.2443 82.7637 31.3542 76.8677 30.8009C73.4331 25.9098 69.874 21.463 66.3013 17.6134C67.2376 16.7109 68.1962 15.8317 69.1763 14.9767C78.4048 6.94596 87.0298 3.77506 90.9595 6.04117V6.04117ZM62.5 44.34C68.6646 44.34 73.6621 49.3376 73.6621 55.5021C73.6621 61.6667 68.6646 66.6642 62.5 66.6642C56.3354 66.6642 51.3379 61.6667 51.3379 55.5021C51.3379 49.3376 56.3354 44.34 62.5 44.34V44.34Z" fill="#00D8FF"/>
</g>
<defs>
<clipPath id="clip0">
<rect width="125" height="111.328" fill="white"/>
</clipPath>
</defs>
</svg>
